<svg width="7" height="9" viewBox="0 0 7 9" fill="none" xmlns="http://www.w3.org/2000/svg">
<path d="M0.799988 5.10004L1.59998 4.80005L2 4.90002L2.09998 4.80005L2.19995 4.70001V4.60004L2.29999 4.5L2.5 4.40002H2.89996H3.09998H3.19995V4.30005L3.29999 4.20001V3.90002L3.59998 2.80005L3.69995 1.40002H3.79999V1.20001H3.89996L4.39996 0.800049L4.29999 1.60004L4.19995 1.80005V1.90002V2.10004V2.20001L4.5 2.60004L4.59998 3.10004L4.79999 3.5L4.89996 3.60004L5 3.70001H5.09998L5.79999 3.30005H5.89996H6V3.40002V3.5V3.70001L6.09998 3.80005L6.29999 4.10004V4.20001H6.39996L6.29999 4.5V4.60004L5.29999 6.40002L5.19995 6.60004V6.70001L5.09998 7.10004V8.30005L4.29999 7.90002L3.29999 8L2.89996 8.10004L1.79999 8.5L1.89996 7.30005L2 7.10004V7L1.89996 6.90002L1.79999 6.70001V6.60004L1.19995 6.30005L1.09998 6.20001L0.799988 5.80005V5.60004V5.10004Z" fill="white" stroke="white" stroke-width="0.1" stroke-linecap="round" stroke-linejoin="round"/>
</svg>
