<svg width="8" height="7" viewBox="0 0 8 7" fill="none" xmlns="http://www.w3.org/2000/svg">
<path d="M7.89996 6.20001L7.69995 6.40002L7.59998 6.5H7.5L7.09998 6.40002L7 6.30005L6.79999 6.20001H6.69995L6.59998 6.5L6.39996 6.60004L6.09998 6.5L6 6.40002H5.79999L5.59998 6.30005H5.19995H3.39996V6.20001L3.29999 6V5.90002H3L2.5 6.10004L2.39996 6H2.29999V5.90002V5.30005L2.19995 5.20001V5.10004L1.89996 4.90002L1 4.60004L1.09998 4.10004L1.19995 4V3.60004L1.29999 3.40002L1.5 3.30005V3.20001H1.59998V3.10004V2.90002V2.70001L1.69995 2.60004L3.09998 2.10004V2H3.19995V1.90002L3.09998 1.70001V1.60004L3.79999 0.700012L4.79999 2V2.10004V2.20001V2.5L4.89996 2.80005L5 3.10004L5.19995 3.30005L5.29999 3.40002L5.39996 3.30005L5.5 3.20001H5.59998H5.69995V3.30005L6.69995 4.40002L7.79999 5.70001L7.89996 6.20001Z" fill="white" stroke="white" stroke-width="0.1" stroke-linecap="round" stroke-linejoin="round"/>
</svg>
