<svg width="7" height="9" viewBox="0 0 7 9" fill="none" xmlns="http://www.w3.org/2000/svg">
<path d="M6.79999 2.10004L6.5 2.40002L6.39996 3L6.69995 3.40002L6.19995 4.5L4.79999 6L3.79999 7.5L4.09998 8.90002L2.69995 7.90002L1.39996 7.80005L0.699951 7.20001L0.0999756 6.40002V6.30005L0.399963 5.60004L0.5 5.40002V5L0.399963 4.20001V4V3.90002V3.80005L0.699951 3.5L0.799988 3.40002L1.79999 3.20001L1.89996 3.10004H2V3L1.89996 2.30005L2 1.40002L1.89996 1.10004L2.29999 1L3.29999 0.900024L4.09998 1.30005H4.19995L5.09998 2.5L5.19995 2.60004L6 2.5L6.79999 2.10004Z" fill="white" stroke="white" stroke-width="0.1" stroke-linecap="round" stroke-linejoin="round"/>
</svg>
