<svg width="9" height="10" viewBox="0 0 9 10" fill="none" xmlns="http://www.w3.org/2000/svg">
<path d="M6.5 0.400024V1.90002L8.69995 3.70001L8.19995 5.20001V5.30005L8.09998 5.5L8 5.80005L7.89996 6V6.10004H7.79999H7.69995L7.59998 6V5.80005L7.5 5.70001H7.39996L7.29999 5.80005V5.90002V6L7.5 6.70001L7.39996 6.80005V7L7.19995 7.20001L6.89996 7.30005L6.79999 7.40002L6.69995 8.30005L6.09998 8.60004L5.89996 8.80005L5.79999 9L5.59998 9.20001L4.69995 9.40002L3.69995 8.30005V8.20001H3.59998H3.5L3.39996 8.30005L3.29999 8.40002L3.19995 8.30005L3 8.10004L2.89996 7.80005L2.79999 7.5V7.20001V7.10004V7L1.79999 5.70001L0.599976 3.60004L0.5 2.90002L2.39996 2.40002L2.79999 0.700012L3.09998 0.300049L3.59998 0.600037L4.09998 1.70001L4.89996 1.10004L6.19995 0.800049L6.5 0.400024Z" fill="white" stroke="white" stroke-width="0.1" stroke-linecap="round" stroke-linejoin="round"/>
</svg>
