<svg width="13" height="13" viewBox="0 0 13 13" fill="none" xmlns="http://www.w3.org/2000/svg">
<path d="M12.1 3.90002L12.2 4.70001L11.6 7.20001L10.4 8.20001L9.89996 9.5L8.79999 10.5L8.69995 12.2L7.5 12.6L6.79999 12.1L6.59998 11.7L5.29999 12.1L5.09998 9.90002L4.89996 9.80005L3.39996 6.10004L2.59998 5L1.59998 4.30005L0.799988 2.90002L0.699951 2.70001V2.60004H0.799988V2.5V2.40002L0.899963 2.30005H1L1.09998 2.20001H1.19995L3.39996 2.40002L4.29999 3H4.5L4.59998 2.90002L4.69995 2.80005L5 2.30005L5.29999 2.20001L6 2.40002H6.09998L6.29999 2.30005V2.20001L6.39996 2.10004V2L6.29999 1.90002L5.5 1L6 0.900024H6.29999L7 1.60004L7.19995 2L7.29999 2.10004H7.39996H7.5L7.79999 1.90002L8.09998 1.40002L8.69995 2.20001L9.39996 2.80005L10.7 2.90002L12.1 3.90002Z" fill="white" stroke="white" stroke-width="0.1" stroke-linecap="round" stroke-linejoin="round"/>
</svg>
