<svg width="6" height="6" viewBox="0 0 6 6" fill="none" xmlns="http://www.w3.org/2000/svg">
<path d="M5 5.10004L4.89996 4.70001H4.69995L4.59998 4.60004L3.79999 3.60004L3.59998 3.30005L3.5 3.10004L3.39996 3L3.29999 2.90002H2.29999L1.89996 3.20001L1.79999 2.70001L0.699951 1.40002L1.59998 1.20001L1.79999 1L1.89996 0.800049L2.09998 0.600037L2.69995 0.300049H3.29999L4.19995 0.5L4.29999 0.700012V1V1.30005L4.89996 2L5.09998 2.60004V2.70001V2.80005V3V3.20001V3.30005L5.39996 3.5H5.5V3.60004L5.59998 3.80005V3.90002L5.79999 4.10004L5.69995 4.60004H5.5L5.19995 4.90002L5 5.10004Z" fill="white" stroke="white" stroke-width="0.1" stroke-linecap="round" stroke-linejoin="round"/>
</svg>
