<svg width="9" height="11" viewBox="0 0 9 11" fill="none" xmlns="http://www.w3.org/2000/svg">
<path d="M2.09998 2.80005L2.29999 2.60004L2.5 2.5L2.59998 2.40002L2.69995 2.30005V2.20001V2.10004L2.5 1.60004L2.29999 1.20001L3.19995 0.600037L3.5 0.5L4.69995 0.700012L4.79999 0.900024L5.59998 2.30005L6.59998 3L7.39996 4.10004L8.89996 7.80005L8.29999 7.10004L7 7L6.09998 8.20001L5.19995 8.10004L4.29999 8.5L3.5 9.90002L2.29999 10.1L1.19995 9.10004L0.599976 7.80005H1.59998L1.79999 7.70001V7.60004L1.89996 6.60004V6.5L2 6.20001L2.19995 6.10004L2.39996 6L2.89996 6.10004L3 6L3.09998 5.70001V5.20001V5V4.80005L2.79999 3.90002V3.70001L2.69995 3.5L2.09998 2.80005Z" fill="white" stroke="white" stroke-width="0.1" stroke-linecap="round" stroke-linejoin="round"/>
</svg>
