<svg width="9" height="6" viewBox="0 0 9 6" fill="none" xmlns="http://www.w3.org/2000/svg">
<path d="M7.79999 4.70001L7.5 4.90002H7.19995L6.59998 4.60004L5.69995 4.70001L5.29999 5.10004H5.19995L3.39996 4.80005L2.19995 5.20001L0.899963 4.80005L1.89996 3.30005V3L2 2.90002H1.89996V2.70001L1.79999 2.60004L1.59998 2.5L0.599976 2.40002L0.399963 2.30005H0.299988V2.20001L0.199951 2.10004V2V1.90002H0.299988V1.80005L0.899963 1.70001L2.09998 0.700012L4 0.600037L4.89996 0.900024L5.19995 1.10004V1.20001L5.29999 1.30005V1.90002V2H5.39996L5.5 2.10004L6 1.90002H6.29999V2L6.39996 2.20001V2.30005H8.19995L8.29999 3.60004L8.19995 3.90002L8.09998 4.30005L7.79999 4.70001Z" fill="white" stroke="white" stroke-width="0.1" stroke-linecap="round" stroke-linejoin="round"/>
</svg>
