<svg width="9" height="7" viewBox="0 0 9 7" fill="none" xmlns="http://www.w3.org/2000/svg">
<path d="M1.19995 1.10004L1.5 1.60004L1.79999 1.80005H2.09998H2.19995H2.29999L2.39996 1.60004L2.5 1.30005V1.10004V0.900024V0.400024L2.59998 0.300049H2.69995L3.19995 0.100037L4.59998 1L5.69995 0.900024L6.79999 0.5L7.89996 0.100037L8 0.400024L7.89996 1.30005L8 2V2.10004H7.89996L7.79999 2.20001L6.79999 2.40002L6.69995 2.5L6.39996 2.80005V2.90002V3V3.20001L6.5 4V4.40002L6.39996 4.60004L6.09998 5.30005V5.40002L5.79999 5.90002L5.5 6.10004H5.39996H5.29999L5.19995 6L5 5.60004L4.29999 4.90002H4L3.5 5V4.90002L3.39996 4.70001V4.60004V4.40002V4.30005V4.20001L3.09998 4L3 3.80005V3.70001L2.89996 3.60004V3.40002V3.30005V3.20001L3 3.10004V3V2.90002L2.19995 2.70001L2.09998 2.80005V2.90002L2 3H1.89996V2.90002L1.69995 2.5V2.40002H1.59998L1.69995 2.20001V2.10004H1.59998L1.09998 1.70001L1 1.60004L1.19995 1.10004Z" fill="white" stroke="white" stroke-width="0.1" stroke-linecap="round" stroke-linejoin="round"/>
</svg>
