<svg width="10" height="12" viewBox="0 0 10 12" fill="none" xmlns="http://www.w3.org/2000/svg">
<path d="M0.299988 1.40002L1.89996 1.30005L4.09998 0.600037L4.89996 0.700012L5.09998 1.5L6 3.20001L6.59998 4L7.69995 4.40002L8.09998 5.60004L8.29999 5.90002L9 7.30005L6.39996 8.30005L6.09998 9L4.89996 8.80005L4.59998 10.4L3.79999 11.1L3 11.5L2.19995 11.6L2.09998 11.5L1.19995 10.3H1.09998V9.10004L1.19995 8.70001V8.60004L1.29999 8.40002L2.29999 6.60004V6.5L2.39996 6.20001H2.29999V6.10004L2.09998 5.80005L2 5.70001V5.5V5.40002V5.30005H1.89996H1.79999L1.09998 5.70001H1L0.899963 5.60004L0.799988 5.5L0.599976 5.10004L0.5 4.60004L0.199951 4.20001V4.10004V3.90002V3.80005L0.299988 3.60004L0.399963 2.80005V1.80005L0.299988 1.40002Z" fill="white" stroke="white" stroke-width="0.1" stroke-linecap="round" stroke-linejoin="round"/>
</svg>
