<svg width="5" height="6" viewBox="0 0 5 6" fill="none" xmlns="http://www.w3.org/2000/svg">
<path d="M1.89996 5.10004L1.79999 4.80005L1.69995 4.60004V4.5L1.29999 4.30005H1.19995V4.20001V4.10004V4L2 3V2.90002V2.80005L1.89996 2.70001L1.5 2.60004V2.5V2.30005L1.39996 2.20001L0.899963 1.80005L1 1.20001V1.10004V1L1.09998 0.900024L1.29999 0.800049H2.79999L3 1.40002L3.39996 1.80005L3.59998 1.90002L4.19995 1.80005H4.29999L4.79999 2.30005V2.70001V2.90002V3L4.19995 3.30005L4 3.70001L3.79999 3.80005L3.59998 3.90002H2.79999L2.59998 4.10004L2.19995 4.20001V4.30005L2.09998 4.40002V4.80005L1.89996 5.10004Z" fill="white" stroke="white" stroke-width="0.1" stroke-linecap="round" stroke-linejoin="round"/>
</svg>
