<svg width="8" height="13" viewBox="0 0 8 13" fill="none" xmlns="http://www.w3.org/2000/svg">
<path d="M5.89996 9.80005L5.29999 11.1L4.89996 11.6L4.69995 11.9V12.5V12.6L4.5 12.8L4.29999 12.9H3.79999L3.59998 12.8L2.09998 12.4L1 11L1.59998 9.70001L2.19995 5.5L1.19995 2.40002L1.5 1.90002L1.69995 0.600037L2.29999 0.400024L2.79999 0.900024L4.09998 0.600037H5.59998L6 2.80005L6.09998 2.90002V3V3.10004L6.19995 3.20001V3.30005V3.40002L7 5.30005L7.09998 5.70001L5.89996 6.70001L5.29999 6.80005V6.90002H5.19995V7V7.10004L5.29999 7.20001V7.30005H5.39996L5.59998 7.40002L6.59998 7.5L6.79999 7.60004L6.89996 7.70001V7.90002H7L6.89996 8V8.30005L5.89996 9.80005Z" fill="white" stroke="white" stroke-width="0.1" stroke-linecap="round" stroke-linejoin="round"/>
</svg>
