<svg width="11" height="7" viewBox="0 0 11 7" fill="none" xmlns="http://www.w3.org/2000/svg">
<path d="M9.79999 0.700012L10 0.800049L10.1 0.900024V1L10.2 1.20001V1.30005L9.69995 1.40002L9.09998 2.10004L8.59998 2.30005L6.79999 2.40002L6.19995 3L6.5 3.60004L4.19995 4L4.09998 4.10004L3.69995 4.5V4.70001H3.59998V4.80005H3.69995V4.90002L3.79999 5H3.89996L4.59998 5.10004V5.20001L4.09998 5.60004L3.69995 6.10004L3.59998 6.40002L3.29999 6.80005L2.5 5.90002L1.09998 5.5L0.699951 5L0.599976 3.80005L0.799988 3.90002H1.29999L1.5 3.80005L1.69995 3.60004V3.5V2.90002L1.89996 2.60004L2.29999 2.10004L2.89996 0.800049L4.19995 1.20001L5.39996 0.800049L7.19995 1.10004H7.29999L7.69995 0.700012L8.59998 0.600037L9.19995 0.900024H9.5L9.79999 0.700012Z" fill="white" stroke="white" stroke-width="0.1" stroke-linecap="round" stroke-linejoin="round"/>
</svg>
