<svg width="7" height="4" viewBox="0 0 7 4" fill="none" xmlns="http://www.w3.org/2000/svg">
<path d="M2.19995 0.200012L6.89996 0.700012L6.69995 0.900024V1L6.59998 1.20001L6.5 1.30005V1.40002L6.29999 1.60004V1.70001L6.19995 1.80005V1.90002L6.09998 2V2.20001H6V2.40002L5.89996 2.5L5.79999 2.80005H4.29999L4.09998 2.90002L4 3V3.10004V3.20001L3.89996 3.80005L3.5 3.5L3.29999 3.10004L3.19995 3H3.09998H2.89996L2.29999 3.30005L2.19995 3.5L1.29999 3.30005H0.699951L0.799988 2.40002L0.899963 2.30005L1.19995 2.20001L1.39996 2V1.80005L1.5 1.70001L1.29999 1V0.900024V0.800049L1.39996 0.700012H1.5L1.59998 0.800049V1L1.69995 1.10004H1.79999H1.89996V1L2 0.800049L2.09998 0.5L2.19995 0.300049V0.200012Z" fill="white" stroke="white" stroke-width="0.1" stroke-linecap="round" stroke-linejoin="round"/>
</svg>
