<svg width="5" height="9" viewBox="0 0 5 9" fill="none" xmlns="http://www.w3.org/2000/svg">
<path d="M3.79999 0.400024L4 0.800049V1.40002L4.09998 1.60004V1.80005V2L4.19995 2.30005V2.80005L4.5 3.30005L4.69995 3.60004V3.80005L4.79999 3.90002L4.59998 4L4.5 4.10004L4.29999 4.30005V4.40002H4.19995L3.89996 4.80005L2.69995 5.70001L1.59998 8.10004L0.699951 8.5L0.5 6.80005L1.29999 5L0.899963 4L1.19995 3.5V3.40002L1.29999 2.40002V1.70001L1.09998 1.10004V0.800049V0.700012L1.19995 0.600037H1.29999H1.39996H1.5L2.09998 1H2.19995L2.89996 0.800049L3.39996 0.300049H3.5L3.79999 0.400024Z" fill="white" stroke="white" stroke-width="0.1" stroke-linecap="round" stroke-linejoin="round"/>
</svg>
