<svg width="4" height="9" viewBox="0 0 4 9" fill="none" xmlns="http://www.w3.org/2000/svg">
<path d="M1.09998 7.5V7.40002V5.5L1 5.40002L0.899963 5.30005L0.799988 5.20001L0.699951 4.80005L0.599976 4.60004V4.5V4.40002L0.699951 4.30005L1.39996 3.5L1.5 3.40002L1.59998 3.10004L1.29999 1.90002L2 1.10004L2.19995 0.900024L2.5 1.10004V1.20001L2.59998 1.30005L2.69995 1.5L2.59998 1.80005V1.90002L2.69995 2V2.20001V2.60004L2.79999 2.70001L3.29999 3.70001L3.39996 4L3.5 4.20001V4.30005V4.40002V4.5L3 5.20001V5.30005V5.40002V5.60004L3.19995 5.90002L3.29999 6.40002L3.79999 7.40002V7.5V7.60004H3.69995V7.70001L2.5 7.5L2.19995 7.60004L1.29999 8.20001L0.899963 8.10004V8V7.90002L1.09998 7.5Z" fill="white" stroke="white" stroke-width="0.1" stroke-linecap="round" stroke-linejoin="round"/>
</svg>
