<svg width="6" height="7" viewBox="0 0 6 7" fill="none" xmlns="http://www.w3.org/2000/svg">
<path d="M0.199951 5.20001V5.10004V5L0.599976 4.5L0.699951 4L0.799988 3.80005L0.899963 3.70001L1.39996 3.60004L1.5 3.5V3.40002L1.69995 3V2.90002V2.80005L1.39996 2.40002L1.29999 2.20001L1.19995 1.90002V1.5L1 0.900024V0.800049L1.09998 0.700012V0.600037L1.5 0.400024L1.79999 0.300049L1.89996 0.100037H2H2.19995L2 0.600037L2.09998 0.700012L2.59998 1.10004H2.69995V1.20001L2.59998 1.40002H2.69995V1.5L2.89996 1.90002V2H3L3.09998 1.90002V1.80005L3.19995 1.70001L4 1.90002V2V2.10004L3.89996 2.20001V2.30005V2.40002V2.60004L4 2.70001V2.80005L4.09998 3L4.39996 3.20001V3.30005V3.40002V3.60004V3.70001L4.5 3.90002V4L5.29999 4.90002L5.39996 5V5.10004L5.29999 5.20001V5.30005L5.09998 5.40002H5L4.29999 5.20001L4 5.30005L3.69995 5.80005L3.59998 5.90002L3.5 6H3.29999L2.39996 5.40002L0.199951 5.20001Z" fill="white" stroke="white" stroke-width="0.1" stroke-linecap="round" stroke-linejoin="round"/>
</svg>
