<svg width="7" height="5" viewBox="0 0 7 5" fill="none" xmlns="http://www.w3.org/2000/svg">
<path d="M0.799988 0.400024L3.5 0.100037H3.59998L3.79999 0.300049L4 0.700012L4.09998 0.800049L5.09998 1.40002L6.09998 1.5L5.89996 1.90002V2V2.10004L6.29999 2.20001L6.5 2.60004L6.69995 3.10004V3.20001V3.30005L6.59998 3.40002L6.5 3.5L6.29999 3.60004L6.09998 3.80005L6 3.90002L5.89996 4H5.69995L5.39996 3.80005L5.09998 3.70001L4.5 3.80005L4.19995 3.90002L3.09998 4.10004L2.89996 4H2.79999L2.69995 4.10004L2.59998 4.20001V4.30005H2.5V4.40002H2.39996L2.09998 4.30005L2 4.20001L1.79999 3.90002L1.69995 3.80005V3.60004L1.5 3.30005L1.19995 2.80005V2.30005L1.09998 2V1.80005V1.60004L1 1.40002V0.800049L0.799988 0.400024Z" fill="white" stroke="white" stroke-width="0.1" stroke-linecap="round" stroke-linejoin="round"/>
</svg>
