<svg width="7" height="7" viewBox="0 0 7 7" fill="none" xmlns="http://www.w3.org/2000/svg">
<path d="M2.19995 5.10004L2 4.70001L1.89996 4.60004L1.69995 4.5L1.5 4.30005L0.899963 2.80005L0.799988 2V1.90002V1.70001V1.30005L2.39996 1.20001L3 1.10004L3.09998 1L3.39996 0.600037H3.5L3.59998 0.5L3.79999 0.600037L4.09998 1H4.19995L4.59998 1.20001V1.30005L4.69995 1.5L4.79999 2.10004V2.60004V2.80005L5.09998 3.20001L5.19995 3.30005L5.79999 3.60004V3.70001L5.89996 3.90002L6 4V4.10004L5.89996 4.30005L5.79999 5.5L4.69995 5.90002L3.59998 6L2.19995 5.10004Z" fill="white" stroke="white" stroke-width="0.1" stroke-linecap="round" stroke-linejoin="round"/>
</svg>
