<svg width="7" height="8" viewBox="0 0 7 8" fill="none" xmlns="http://www.w3.org/2000/svg">
<path d="M0.599976 0.800049L0.699951 1.20001L3.19995 2.70001L3.79999 2.60004L4.59998 1.60004L6.29999 1.40002L6.39996 1.80005V2.80005L5.89996 3.20001H5.79999V3.40002H5.69995L5.59998 4.80005L5.29999 5.90002V6.20001L5.19995 6.30005V6.40002H5.09998H4.89996H4.5L4.29999 6.5L4.19995 6.60004V6.70001L4.09998 6.80005L4 6.90002L3.59998 6.80005L2.79999 7.10004L2.69995 6.5L2.59998 6.30005V6.20001L2.19995 6H2.09998L1.79999 5.60004L1.59998 5.5L1.5 5.60004H1.39996L1.09998 6L1 6.10004L0.399963 6.20001L0.5 5L0.199951 3.90002L0.299988 2.90002L0.5 2.30005V2.10004L0.399963 1.90002V1.70001L0.199951 1.5L0.0999756 1.40002V1.30005L0.199951 1.10004V1L0.599976 0.800049Z" fill="white" stroke="white" stroke-width="0.1" stroke-linecap="round" stroke-linejoin="round"/>
</svg>
