<svg width="9" height="9" viewBox="0 0 9 9" fill="none" xmlns="http://www.w3.org/2000/svg">
<path d="M8.29999 1.30005V1.40002L7.89996 2.10004V2.20001H7.79999H7L6.89996 2.30005L6.79999 2.60004V2.80005V2.90002L6.89996 3.30005V3.40002L6.79999 4V4.40002L6.5 4.30005H6.39996L5.89996 4.80005L5.19995 5H5.09998L4.5 4.60004H4.39996H4.29999H4.19995L4.09998 4.70001V4.80005V5.10004L4.29999 5.70001V6.40002L4.19995 7.40002V7.5L3.89996 8L3.69995 7.40002L2.59998 6.90002H1.89996V6.80005L0.799988 5.90002L0.299988 5.80005L0.599976 5.40002L0.699951 5.10004L1.09998 4.60004L1.59998 4.20001V4.10004L0.899963 4H0.799988L0.699951 3.90002V3.80005H0.599976V3.70001H0.699951V3.5L1.09998 3.10004L1.19995 3L3.5 2.60004L3.19995 2L3.79999 1.40002L5.59998 1.30005L6.09998 1.10004L6.69995 0.400024L7.19995 0.300049L7.69995 0.5L8.29999 1.30005Z" fill="white" stroke="white" stroke-width="0.1" stroke-linecap="round" stroke-linejoin="round"/>
</svg>
