<svg width="8" height="6" viewBox="0 0 8 6" fill="none" xmlns="http://www.w3.org/2000/svg">
<path d="M1.79999 0.900024L2 1.20001L2.09998 1.30005L2.39996 1.40002H2.5V1.30005H2.59998V1.20001L2.69995 1.10004L2.79999 1H2.89996L3.09998 1.10004L4.19995 0.900024L4.5 0.800049L5.09998 0.700012L5.39996 0.800049L5.69995 1H5.89996L6 0.900024L6.09998 0.800049L6.69995 1.5L6.79999 1.70001V1.90002L7.09998 2.80005V3V3.20001V3.70001L7 4L6.89996 4.10004L6.39996 4L6.19995 4.10004L6 4.20001L5.89996 4.5V4.60004L5.79999 5.60004V5.70001L5.59998 5.80005H4.59998L3.89996 4.40002L3.5 4.30005L2 5.20001L2.09998 3.30005L0.899963 1.80005L1.19995 1.40002H1.29999V1.30005L1.5 1.10004L1.59998 1L1.79999 0.900024Z" fill="white" stroke="white" stroke-width="0.1" stroke-linecap="round" stroke-linejoin="round"/>
</svg>
