<svg width="5" height="8" viewBox="0 0 5 8" fill="none" xmlns="http://www.w3.org/2000/svg">
<path d="M0.699951 0.600037L1.29999 0.400024L2.09998 0.700012H2.19995L3 1.20001L3.5 1.5L4.19995 1.60004V2.10004H4H3.89996L3.79999 2.30005L3.5 2.40002L3.09998 2.60004V2.70001L3 2.80005V2.90002L3.19995 3.5V3.90002L3.29999 4.20001L3.39996 4.40002L3.69995 4.80005V4.90002V5L3.5 5.40002V5.5L3.39996 5.60004L2.89996 5.70001L2.79999 5.80005L2.69995 6L2.59998 6.5L2.19995 7V7.10004V7.20001H2.09998L2 7.30005H1.89996L1.79999 7.40002L1.29999 6.40002L1.19995 5.90002L1 5.60004V5.40002V5.30005V5.20001L1.5 4.5V4.40002V4.30005V4.20001L1.39996 4L1.29999 3.70001L0.799988 2.70001L0.699951 2.60004V2.20001V2L0.599976 1.90002V1.80005L0.699951 1.5L0.599976 1.30005L0.5 1.20001V1.10004L0.199951 0.900024L0.5 0.600037H0.699951Z" fill="white" stroke="white" stroke-width="0.1" stroke-linecap="round" stroke-linejoin="round"/>
</svg>
