<svg width="6" height="6" viewBox="0 0 6 6" fill="none" xmlns="http://www.w3.org/2000/svg">
<path d="M1.19995 3.70001V3.60004V3.5L1.09998 3.40002L1 3.30005V3.20001L0.899963 3.10004L1.09998 2.80005V2.40002L1.19995 2.30005V2.20001L1.59998 2.10004L1.79999 1.90002H2.59998L2.79999 1.80005L3 1.70001L3.19995 1.30005L3.79999 1L3.89996 1.80005L4.5 3.30005L4.69995 3.5L4.89996 3.60004L5 3.70001L5.19995 4.10004L4.69995 4.30005H4.59998L4.5 4.40002V4.90002V5.10004V5.30005L4.39996 5.60004L4.29999 5.80005H4.19995H4.09998H3.79999L3.5 5.60004L3.19995 5.10004V4.60004L2.5 4.5L2 4.20001L1.19995 3.70001Z" fill="white" stroke="white" stroke-width="0.1" stroke-linecap="round" stroke-linejoin="round"/>
</svg>
