<svg width="5" height="8" viewBox="0 0 5 8" fill="none" xmlns="http://www.w3.org/2000/svg">
<path d="M3.19995 0.200012L3.29999 0.300049L4.29999 1L4.59998 1.80005L4.19995 2V2.10004L4.09998 2.30005V2.40002L4.19995 2.5L4.39996 2.70001V2.90002L4.5 3.10004V3.30005L4.29999 3.90002L4.19995 4.90002L4.5 6L4.39996 7.20001L2.79999 7.30005L2.29999 6.80005H2.19995L1.59998 6.90002L1.39996 6.80005L1 6.40002L0.799988 5.80005L0.899963 5.5L1 5.40002V5.20001H1.09998V5L1.19995 4.90002V4.80005L1.29999 4.70001V4.60004L1.5 4.40002V4.30005L1.59998 4.20001L1.69995 4V3.90002L1.89996 3.70001V3.60004V3.5V3.40002V3.30005V3.20001V3.10004V2.90002V2.80005L2 2.70001L2.09998 2.60004L2.29999 2.40002H2.39996V2.30005L2.5 2.20001V2.10004V1.90002L2.59998 1.60004V1.5V1.40002V1.30005V1.20001V1.10004H2.69995V1L3.19995 0.200012Z" fill="white" stroke="white" stroke-width="0.1" stroke-linecap="round" stroke-linejoin="round"/>
</svg>
