<svg width="7" height="7" viewBox="0 0 7 7" fill="none" xmlns="http://www.w3.org/2000/svg">
<path d="M6.09998 6.5L5.09998 6.40002L4.09998 5.80005L4 5.70001L3.79999 5.30005L3.59998 5.10004H3.5L0.799988 5.40002V5L0.899963 4.40002V4.30005L0.799988 3.90002V3.80005V3.60004L0.899963 3.30005L1 3.20001H1.79999H1.89996V3.10004L2.29999 2.40002V2.30005L2.5 2.5L3 2.80005L3.89996 2.5L4.29999 2.40002L5 2L5.59998 1.5L5.89996 1.30005L6.29999 0.900024L6.59998 2.10004L6.5 2.40002L6.39996 2.5L5.69995 3.30005L5.59998 3.40002V3.5V3.60004L5.69995 3.80005L5.79999 4.20001L5.89996 4.30005L6 4.40002L6.09998 4.5V6.40002V6.5Z" fill="white" stroke="white" stroke-width="0.1" stroke-linecap="round" stroke-linejoin="round"/>
</svg>
