<svg width="6" height="5" viewBox="0 0 6 5" fill="none" xmlns="http://www.w3.org/2000/svg">
<path d="M4.29999 3.90002L3.89996 4.30005L3.59998 4.5L3.5 4.20001L3.39996 3.90002V3.80005H3.29999L2.79999 4L2.59998 3.90002H2.5L2.39996 3.70001L2.19995 3.20001L1.79999 2.70001L1.39996 2.40002L1.19995 2.30005V2.20001V2.10004V1.90002V1.80005H1.09998L0.399963 1.60004L0.599976 1.5L0.699951 1.20001H0.799988L1 1.30005L1.09998 1.40002L1.5 1.5H1.59998L1.69995 1.40002L1.89996 1.20001L2.29999 0.900024H3.29999L3.39996 1L3.5 1.10004L3.59998 1.30005L3.79999 1.60004L4.59998 2.60004L4.69995 2.70001H4.89996L5 3.10004L4.29999 3.90002Z" fill="white" stroke="white" stroke-width="0.1" stroke-linecap="round" stroke-linejoin="round"/>
</svg>
