<svg width="41" height="32" viewBox="0 0 41 32" fill="none" xmlns="http://www.w3.org/2000/svg">
<path d="M18.1 21.5L17.1 21.4L16.1 20.8L16 20.7L15.8 20.3L15.6 20.1H15.5L12.8 20.4V20L12.9 19.4V19.3L12.8 18.9V18.8V18.6L12.9 18.3L13 18.2H13.8H13.9V18.1L14.3 17.4V17.3L14.5 17.5L15 17.8L15.9 17.5L16.3 17.4L17 17L17.6 16.5L17.9 16.3L18.3 15.9L18.6 17.1L18.5 17.4L18.4 17.5L17.7 18.3L17.6 18.4V18.5V18.6L17.7 18.8L17.8 19.2L17.9 19.3L18 19.4L18.1 19.5V21.4V21.5Z" fill="white" stroke="#ECECEC" stroke-width="0.1" stroke-linecap="round" stroke-linejoin="round"/>
<path d="M12.8 20.4L15.5 20.1H15.6L15.8 20.3L16 20.7L16.1 20.8L17.1 21.4L18.1 21.5L17.9 21.9V22V22.1L18.3 22.2L18.5 22.6L18.7 23.1V23.2V23.3L18.6 23.4L18.5 23.5L18.3 23.6L18.1 23.8L18 23.9L17.9 24H17.7L17.4 23.8L17.1 23.7L16.5 23.8L16.2 23.9L15.1 24.1L14.9 24H14.8L14.7 24.1L14.6 24.2V24.3H14.5V24.4H14.4L14.1 24.3L14 24.2L13.8 23.9L13.7 23.8V23.6L13.5 23.3L13.2 22.8V22.3L13.1 22V21.8V21.6L13 21.4V20.8L12.8 20.4Z" fill="white" stroke="#ECECEC" stroke-width="0.1" stroke-linecap="round" stroke-linejoin="round"/>
<path d="M18.3 15.9L17.9 16.3L17.6 16.5L17.5 16.2L17.4 15.9V15.8H17.3L16.8 16L16.6 15.9H16.5L16.4 15.7L16.2 15.2L15.8 14.7L15.4 14.4L15.2 14.3V14.2V14.1V13.9V13.8H15.1L14.4 13.6L14.6 13.5L14.7 13.2H14.8L15 13.3L15.1 13.4L15.5 13.5H15.6L15.7 13.4L15.9 13.2L16.3 12.9H17.3L17.4 13L17.5 13.1L17.6 13.3L17.8 13.6L18.6 14.6L18.7 14.7H18.9L19 15.1L18.3 15.9Z" fill="white" stroke="#ECECEC" stroke-width="0.1" stroke-linecap="round" stroke-linejoin="round"/>
<path d="M17.6 16.5L17 17L16.3 17.4L15 16L14.8 15.8L14.7 15.5V14.9V14.8V14.7L14.3 14.4H14.2V14.3V14.2V13.9V13.8L14.4 13.6L15.1 13.8H15.2V13.9V14.1V14.2V14.3L15.4 14.4L15.8 14.7L16.2 15.2L16.4 15.7L16.5 15.9H16.6L16.8 16L17.3 15.8H17.4V15.9L17.5 16.2L17.6 16.5Z" fill="white" stroke="#ECECEC" stroke-width="0.1" stroke-linecap="round" stroke-linejoin="round"/>
<path d="M12.8 15.7L13 15.8L13.1 15.9V16L13.2 16.2V16.3L12.7 16.4L12.1 17.1L11.6 17.3L9.79999 17.4L9.19995 18L9.5 18.6L7.19995 19L7.09998 19.1L6.69995 19.5V19.7H6.59998V19.8H6.69995V19.9L6.79999 20H6.89996L7.59998 20.1V20.2L7.09998 20.6L6.69995 21.1L6.59998 21.4L6.29999 21.8L5.5 20.9L4.09998 20.5L3.69995 20L3.59998 18.8L3.79999 18.9H4.29999L4.5 18.8L4.69995 18.6V18.5V17.9L4.89996 17.6L5.29999 17.1L5.89996 15.8L7.19995 16.2L8.39996 15.8L10.2 16.1H10.3L10.7 15.7L11.6 15.6L12.2 15.9H12.5L12.8 15.7Z" fill="white" stroke="#ECECEC" stroke-width="0.1" stroke-linecap="round" stroke-linejoin="round"/>
<path d="M12.8 15.7L12.5 15.9H12.2L11.6 15.6L10.7 15.7L10.3 16.1H10.2L8.39996 15.8L7.19995 16.2L5.89996 15.8L6.89996 14.3V14L7 13.9H6.89996V13.7L6.79999 13.6L6.59998 13.5L5.59998 13.4L5.39996 13.3H5.29999V13.2L5.19995 13.1V13V12.9H5.29999V12.8L5.89996 12.7L7.09998 11.7L9 11.6L9.89996 11.9L10.2 12.1V12.2L10.3 12.3V12.9V13H10.4L10.5 13.1L11 12.9H11.3V13L11.4 13.2V13.3H13.2L13.3 14.6L13.2 14.9L13.1 15.3L12.8 15.7Z" fill="white" stroke="#ECECEC" stroke-width="0.1" stroke-linecap="round" stroke-linejoin="round"/>
<path d="M16.3 17.4L15.9 17.5L15 17.8L14.5 17.5L14.3 17.3L13.7 16.5L13.2 16.3V16.2L13.1 16V15.9L13 15.8L12.8 15.7L13.1 15.3L13.2 14.9L13.3 14.6L13.2 13.3H13.6L13.8 13.4H14L14.1 13.5L14.4 13.6L14.2 13.8V13.9V14.2V14.3V14.4H14.3L14.7 14.7V14.8V14.9V15.5L14.8 15.8L15 16L16.3 17.4Z" fill="white" stroke="#ECECEC" stroke-width="0.1" stroke-linecap="round" stroke-linejoin="round"/>
<path d="M14.3 17.3V17.4L13.9 18.1V18.2H13.8H13L12.9 18.3L12.8 18.6V18.8V18.9L12.9 19.3V19.4L12.8 20V20.4L12.5 20.3H12.4L11.9 20.8L11.2 21H11.1L10.5 20.6H10.4H10.3H10.2L10.1 20.7V20.8V21.1L10.3 21.7V22.4L10.2 23.4V23.5L9.89996 24L9.69995 23.4L8.59998 22.9H7.89996V22.8L6.79999 21.9L6.29999 21.8L6.59998 21.4L6.69995 21.1L7.09998 20.6L7.59998 20.2V20.1L6.89996 20H6.79999L6.69995 19.9V19.8H6.59998V19.7H6.69995V19.5L7.09998 19.1L7.19995 19L9.5 18.6L9.19995 18L9.79999 17.4L11.6 17.3L12.1 17.1L12.7 16.4L13.2 16.3L13.7 16.5L14.3 17.3Z" fill="white" stroke="#ECECEC" stroke-width="0.1" stroke-linecap="round" stroke-linejoin="round"/>
<path d="M20.9 14.1L21 14.2V14.3L21.1 14.4L21.2 14.5V14.6V14.7H21.1L20.3 14.4L19.7 14.6L19.8 14.1L19.6 13.9V13.8L19.5 13.6V13.5L19.7 13.4L19.9 13.3H20.2H20.3L20.7 13.5V13.6L20.8 13.8L20.9 14.1Z" fill="white" stroke="#ECECEC" stroke-width="0.1" stroke-linecap="round" stroke-linejoin="round"/>
<path d="M21.2 14.7V14.6V14.5L21.1 14.4L21 14.3V14.2L20.9 14.1L21.1 13.8V13.4L21.2 13.3V13.2L21.6 13.1L21.8 12.9H22.6L22.8 12.8L23 12.7L23.2 12.3L23.8 12L23.9 12.8L24.5 14.3L24.7 14.5L24.9 14.6L25 14.7L25.2 15.1L24.7 15.3H24.6L24.5 15.4V15.9V16.1V16.3L24.4 16.6L24.3 16.8H24.2H24.1H23.8L23.5 16.6L23.2 16.1V15.6L22.5 15.5L22 15.2L21.2 14.7Z" fill="white" stroke="#ECECEC" stroke-width="0.1" stroke-linecap="round" stroke-linejoin="round"/>
<path d="M23.8 1.90002L24 2.80005L23.7 4L24.2 4.20001L23.7 5V5.10004H23.6V5.20001V5.30005V5.40002V5.5V5.60004L23.5 5.90002V6.10004V6.20001L23.4 6.30005V6.40002H23.3L23.1 6.60004L23 6.70001L22.9 6.80005V6.90002V7.10004V7.20001V7.30005V7.40002V7.5V7.60004V7.70001L18.2 7.20001L18.7 5.70001L16.5 3.90002V2.40002L16.9 2L17.4 1L23.8 1.90002Z" fill="white" stroke="#ECECEC" stroke-width="0.1" stroke-linecap="round" stroke-linejoin="round"/>
<path d="M16.5 2.40002V3.90002L18.7 5.70001L18.2 7.20001V7.30005L18.1 7.5L18 7.80005L17.9 8V8.10004H17.8H17.7L17.6 8V7.80005L17.5 7.70001H17.4L17.3 7.80005V7.90002V8L17.5 8.70001L17.4 8.80005V9L17.2 9.20001L16.9 9.30005L16.8 9.40002L16.7 10.3L16.1 10.6L15.9 10.8L15.8 11L15.6 11.2L14.7 11.4L13.7 10.3V10.2H13.6H13.5L13.4 10.3L13.3 10.4L13.2 10.3L13 10.1L12.9 9.80005L12.8 9.5V9.20001V9.10004V9L11.8 7.70001L10.6 5.60004L10.5 4.90002L12.4 4.40002L12.8 2.70001L13.1 2.30005L13.6 2.60004L14.1 3.70001L14.9 3.10004L16.2 2.80005L16.5 2.40002Z" fill="white" stroke="#ECECEC" stroke-width="0.1" stroke-linecap="round" stroke-linejoin="round"/>
<path d="M24.2 4.20001L24.3 4.30005L25.3 5L25.6 5.80005L25.2 6V6.10004L25.1 6.30005V6.40002L25.2 6.5L25.4 6.70001V6.90002L25.5 7.10004V7.30005L25.3 7.90002L25.2 8.90002L25.5 10L25.4 11.2L23.8 11.3L23.3 10.8H23.2L22.6 10.9L22.4 10.8L22 10.4L21.8 9.80005L21.9 9.5L22 9.40002V9.20001H22.1V9L22.2 8.90002V8.80005L22.3 8.70001V8.60004L22.5 8.40002V8.30005L22.6 8.20001L22.7 8V7.90002L22.9 7.70001V7.60004V7.5V7.40002V7.30005V7.20001V7.10004V6.90002V6.80005L23 6.70001L23.1 6.60004L23.3 6.40002H23.4V6.30005L23.5 6.20001V6.10004V5.90002L23.6 5.60004V5.5V5.40002V5.30005V5.20001V5.10004H23.7V5L24.2 4.20001Z" fill="white" stroke="#ECECEC" stroke-width="0.1" stroke-linecap="round" stroke-linejoin="round"/>
<path d="M25.6 5.80005L25.7 6.20001L28.2 7.70001L28.8 7.60004L29.6 6.60004L31.3 6.40002L31.4 6.80005V7.80005L30.9 8.20001H30.8V8.40002H30.7L30.6 9.80005L30.3 10.9V11.2L30.2 11.3V11.4H30.1H29.9H29.5L29.3 11.5L29.2 11.6V11.7L29.1 11.8L29 11.9L28.6 11.8L27.8 12.1L27.7 11.5L27.6 11.3V11.2L27.2 11H27.1L26.8 10.6L26.6 10.5L26.5 10.6H26.4L26.1 11L26 11.1L25.4 11.2L25.5 10L25.2 8.90002L25.3 7.90002L25.5 7.30005V7.10004L25.4 6.90002V6.70001L25.2 6.5L25.1 6.40002V6.30005L25.2 6.10004V6L25.6 5.80005Z" fill="white" stroke="#ECECEC" stroke-width="0.1" stroke-linecap="round" stroke-linejoin="round"/>
<path d="M31.3 6.40002L32.9 6.30005L35.1 5.60004L35.9 5.70001L36.1 6.5L37 8.20001L37.6 9L38.7 9.40002L39.1 10.6L39.3 10.9L40 12.3L37.4 13.3L37.1 14L35.9 13.8L35.6 15.4L34.8 16.1L34 16.5L33.2 16.6L33.1 16.5L32.2 15.3H32.1V14.1L32.2 13.7V13.6L32.3 13.4L33.3 11.6V11.5L33.4 11.2H33.3V11.1L33.1 10.8L33 10.7V10.5V10.4V10.3H32.9H32.8L32.1 10.7H32L31.9 10.6L31.8 10.5L31.6 10.1L31.5 9.60004L31.2 9.20001V9.10004V8.90002V8.80005L31.3 8.60004L31.4 7.80005V6.80005L31.3 6.40002Z" fill="white" stroke="#ECECEC" stroke-width="0.1" stroke-linecap="round" stroke-linejoin="round"/>
<path d="M34.8 16.1L34.5 16.4L34.4 17L34.7 17.4L34.2 18.5L32.8 20L31.8 21.5L32.1 22.9L30.7 21.9L29.4 21.8L28.7 21.2L28.1 20.4V20.3L28.4 19.6L28.5 19.4V19L28.4 18.2V18V17.9V17.8L28.7 17.5L28.8 17.4L29.8 17.2L29.9 17.1H30V17L29.9 16.3L30 15.4L29.9 15.1L30.3 15L31.3 14.9L32.1 15.3H32.2L33.1 16.5L33.2 16.6L34 16.5L34.8 16.1Z" fill="white" stroke="#ECECEC" stroke-width="0.1" stroke-linecap="round" stroke-linejoin="round"/>
<path d="M13.8 23.9L14 24.2L14.1 24.3L14.4 24.4H14.5V24.3H14.6V24.2L14.7 24.1L14.8 24H14.9L15.1 24.1L16.2 23.9L16.5 23.8L17.1 23.7L17.4 23.8L17.7 24H17.9L18 23.9L18.1 23.8L18.7 24.5L18.8 24.7V24.9L19.1 25.8V26V26.2V26.7L19 27L18.9 27.1L18.4 27L18.2 27.1L18 27.2L17.9 27.5V27.6L17.8 28.6V28.7L17.6 28.8H16.6L15.9 27.4L15.5 27.3L14 28.2L14.1 26.3L12.9 24.8L13.2 24.4H13.3V24.3L13.5 24.1L13.6 24L13.8 23.9Z" fill="white" stroke="#ECECEC" stroke-width="0.1" stroke-linecap="round" stroke-linejoin="round"/>
<path d="M5.89996 15.8L5.29999 17.1L4.89996 17.6L4.69995 17.9V18.5V18.6L4.5 18.8L4.29999 18.9H3.79999L3.59998 18.8L2.09998 18.4L1 17L1.59998 15.7L2.19995 11.5L1.19995 8.40002L1.5 7.90002L1.69995 6.60004L2.29999 6.40002L2.79999 6.90002L4.09998 6.60004H5.59998L6 8.80005L6.09998 8.90002V9V9.10004L6.19995 9.20001V9.30005V9.40002L7 11.3L7.09998 11.7L5.89996 12.7L5.29999 12.8V12.9H5.19995V13V13.1L5.29999 13.2V13.3H5.39996L5.59998 13.4L6.59998 13.5L6.79999 13.6L6.89996 13.7V13.9H7L6.89996 14V14.3L5.89996 15.8Z" fill="white" stroke="#ECECEC" stroke-width="0.1" stroke-linecap="round" stroke-linejoin="round"/>
<path d="M15.9 13.2L15.7 13.4L15.6 13.5H15.5L15.1 13.4L15 13.3L14.8 13.2H14.7L14.6 13.5L14.4 13.6L14.1 13.5L14 13.4H13.8L13.6 13.3H13.2H11.4V13.2L11.3 13V12.9H11L10.5 13.1L10.4 13H10.3V12.9V12.3L10.2 12.2V12.1L9.89996 11.9L9 11.6L9.09998 11.1L9.19995 11V10.6L9.29999 10.4L9.5 10.3V10.2H9.59998V10.1V9.90002V9.70001L9.69995 9.60004L11.1 9.10004V9H11.2V8.90002L11.1 8.70001V8.60004L11.8 7.70001L12.8 9V9.10004V9.20001V9.5L12.9 9.80005L13 10.1L13.2 10.3L13.3 10.4L13.4 10.3L13.5 10.2H13.6H13.7V10.3L14.7 11.4L15.8 12.7L15.9 13.2Z" fill="white" stroke="#ECECEC" stroke-width="0.1" stroke-linecap="round" stroke-linejoin="round"/>
<path d="M9 11.6L7.09998 11.7L7 11.3L6.19995 9.40002V9.30005V9.20001L6.09998 9.10004V9V8.90002L6 8.80005L5.59998 6.60004L6.79999 6.70001L9.29999 5.20001L10.5 4.90002L10.6 5.60004L11.8 7.70001L11.1 8.60004V8.70001L11.2 8.90002V9H11.1V9.10004L9.69995 9.60004L9.59998 9.70001V9.90002V10.1V10.2H9.5V10.3L9.29999 10.4L9.19995 10.6V11L9.09998 11.1L9 11.6Z" fill="white" stroke="#ECECEC" stroke-width="0.1" stroke-linecap="round" stroke-linejoin="round"/>
<path d="M19 15.1L18.9 14.7H18.7L18.6 14.6L17.8 13.6L17.6 13.3L17.5 13.1L17.4 13L17.3 12.9H16.3L15.9 13.2L15.8 12.7L14.7 11.4L15.6 11.2L15.8 11L15.9 10.8L16.1 10.6L16.7 10.3H17.3L18.2 10.5L18.3 10.7V11V11.3L18.9 12L19.1 12.6V12.7V12.8V13V13.2V13.3L19.4 13.5H19.5V13.6L19.6 13.8V13.9L19.8 14.1L19.7 14.6H19.5L19.2 14.9L19 15.1Z" fill="white" stroke="#ECECEC" stroke-width="0.1" stroke-linecap="round" stroke-linejoin="round"/>
<path d="M20.2 13.3H19.9L19.7 13.4L19.5 13.5H19.4L19.1 13.3V13.2V13V12.8V12.7V12.6L18.9 12L18.3 11.3V11V10.7L18.2 10.5L18.3 10.3L18.9 10H19.1H19.2L19.3 10.1L19.5 10.5L19.9 10.8L20.4 11.2L20.5 11.3V11.5V11.6L20.9 11.7L21 11.8V11.9V12L20.2 13V13.1V13.2V13.3Z" fill="white" stroke="#ECECEC" stroke-width="0.1" stroke-linecap="round" stroke-linejoin="round"/>
<path d="M18.1 21.5V21.4V19.5L18 19.4L17.9 19.3L17.8 19.2L17.7 18.8L17.6 18.6V18.5V18.4L17.7 18.3L18.4 17.5L18.5 17.4L18.6 17.1L18.3 15.9L19 15.1L19.2 14.9L19.5 15.1V15.2L19.6 15.3L19.7 15.5L19.6 15.8V15.9L19.7 16V16.2V16.6L19.8 16.7L20.3 17.7L20.4 18L20.5 18.2V18.3V18.4V18.5L20 19.2V19.3V19.4V19.6L20.2 19.9L20.3 20.4L20.8 21.4V21.5V21.6H20.7V21.7L19.5 21.5L19.2 21.6L18.3 22.2L17.9 22.1V22V21.9L18.1 21.5Z" fill="white" stroke="#ECECEC" stroke-width="0.1" stroke-linecap="round" stroke-linejoin="round"/>
<path d="M19.7 14.6L20.3 14.4L21.1 14.7H21.2L22 15.2L22.5 15.5L23.2 15.6V16.1H23H22.9L22.8 16.3L22.5 16.4L22.1 16.6V16.7L22 16.8V16.9L22.2 17.5V17.9L22.3 18.2L22.4 18.4L22.7 18.8V18.9V19L22.5 19.4V19.5L22.4 19.6L21.9 19.7L21.8 19.8L21.7 20L21.6 20.5L21.2 21V21.1V21.2H21.1L21 21.3H20.9L20.8 21.4L20.3 20.4L20.2 19.9L20 19.6V19.4V19.3V19.2L20.5 18.5V18.4V18.3V18.2L20.4 18L20.3 17.7L19.8 16.7L19.7 16.6V16.2V16L19.6 15.9V15.8L19.7 15.5L19.6 15.3L19.5 15.2V15.1L19.2 14.9L19.5 14.6H19.7Z" fill="white" stroke="#ECECEC" stroke-width="0.1" stroke-linecap="round" stroke-linejoin="round"/>
<path d="M18.1 23.8L18.3 23.6L18.5 23.5L18.6 23.4L18.7 23.3V23.2V23.1L18.5 22.6L18.3 22.2L19.2 21.6L19.5 21.5L20.7 21.7L20.8 21.9L21.6 23.3L22.6 24L23.4 25.1L24.9 28.8L24.3 28.1L23 28L22.1 29.2L21.2 29.1L20.3 29.5L19.5 30.9L18.3 31.1L17.2 30.1L16.6 28.8H17.6L17.8 28.7V28.6L17.9 27.6V27.5L18 27.2L18.2 27.1L18.4 27L18.9 27.1L19 27L19.1 26.7V26.2V26V25.8L18.8 24.9V24.7L18.7 24.5L18.1 23.8Z" fill="white" stroke="#ECECEC" stroke-width="0.1" stroke-linecap="round" stroke-linejoin="round"/>
<path d="M21.2 21.2V21.1V21L21.6 20.5L21.7 20L21.8 19.8L21.9 19.7L22.4 19.6L22.5 19.5V19.4L22.7 19V18.9V18.8L22.4 18.4L22.3 18.2L22.2 17.9V17.5L22 16.9V16.8L22.1 16.7V16.6L22.5 16.4L22.8 16.3L22.9 16.1H23H23.2L23 16.6L23.1 16.7L23.6 17.1H23.7V17.2L23.6 17.4H23.7V17.5L23.9 17.9V18H24L24.1 17.9V17.8L24.2 17.7L25 17.9V18V18.1L24.9 18.2V18.3V18.4V18.6L25 18.7V18.8L25.1 19L25.4 19.2V19.3V19.4V19.6V19.7L25.5 19.9V20L26.3 20.9L26.4 21V21.1L26.3 21.2V21.3L26.1 21.4H26L25.3 21.2L25 21.3L24.7 21.8L24.6 21.9L24.5 22H24.3L23.4 21.4L21.2 21.2Z" fill="white" stroke="#ECECEC" stroke-width="0.1" stroke-linecap="round" stroke-linejoin="round"/>
<path d="M18.2 7.20001L22.9 7.70001L22.7 7.90002V8L22.6 8.20001L22.5 8.30005V8.40002L22.3 8.60004V8.70001L22.2 8.80005V8.90002L22.1 9V9.20001H22V9.40002L21.9 9.5L21.8 9.80005H20.3L20.1 9.90002L20 10V10.1V10.2L19.9 10.8L19.5 10.5L19.3 10.1L19.2 10H19.1H18.9L18.3 10.3L18.2 10.5L17.3 10.3H16.7L16.8 9.40002L16.9 9.30005L17.2 9.20001L17.4 9V8.80005L17.5 8.70001L17.3 8V7.90002V7.80005L17.4 7.70001H17.5L17.6 7.80005V8L17.7 8.10004H17.8H17.9V8L18 7.80005L18.1 7.5L18.2 7.30005V7.20001Z" fill="white" stroke="#ECECEC" stroke-width="0.1" stroke-linecap="round" stroke-linejoin="round"/>
<path d="M12.8 20.4L13 20.8V21.4L13.1 21.6V21.8V22L13.2 22.3V22.8L13.5 23.3L13.7 23.6V23.8L13.8 23.9L13.6 24L13.5 24.1L13.3 24.3V24.4H13.2L12.9 24.8L11.7 25.7L10.6 28.1L9.69995 28.5L9.5 26.8L10.3 25L9.89996 24L10.2 23.5V23.4L10.3 22.4V21.7L10.1 21.1V20.8V20.7L10.2 20.6H10.3H10.4H10.5L11.1 21H11.2L11.9 20.8L12.4 20.3H12.5L12.8 20.4Z" fill="white" stroke="#ECECEC" stroke-width="0.1" stroke-linecap="round" stroke-linejoin="round"/>
<path d="M25.2 15.1L25 14.7L24.9 14.6L24.7 14.5L24.5 14.3L23.9 12.8L23.8 12V11.9V11.7V11.3L25.4 11.2L26 11.1L26.1 11L26.4 10.6H26.5L26.6 10.5L26.8 10.6L27.1 11H27.2L27.6 11.2V11.3L27.7 11.5L27.8 12.1V12.6V12.8L28.1 13.2L28.2 13.3L28.8 13.6V13.7L28.9 13.9L29 14V14.1L28.9 14.3L28.8 15.5L27.7 15.9L26.6 16L25.2 15.1Z" fill="white" stroke="#ECECEC" stroke-width="0.1" stroke-linecap="round" stroke-linejoin="round"/>
<path d="M23.2 16.1L23.5 16.6L23.8 16.8H24.1H24.2H24.3L24.4 16.6L24.5 16.3V16.1V15.9V15.4L24.6 15.3H24.7L25.2 15.1L26.6 16L27.7 15.9L28.8 15.5L29.9 15.1L30 15.4L29.9 16.3L30 17V17.1H29.9L29.8 17.2L28.8 17.4L28.7 17.5L28.4 17.8V17.9V18V18.2L28.5 19V19.4L28.4 19.6L28.1 20.3V20.4L27.8 20.9L27.5 21.1H27.4H27.3L27.2 21L27 20.6L26.3 19.9H26L25.5 20V19.9L25.4 19.7V19.6V19.4V19.3V19.2L25.1 19L25 18.8V18.7L24.9 18.6V18.4V18.3V18.2L25 18.1V18V17.9L24.2 17.7L24.1 17.8V17.9L24 18H23.9V17.9L23.7 17.5V17.4H23.6L23.7 17.2V17.1H23.6L23.1 16.7L23 16.6L23.2 16.1Z" fill="white" stroke="#ECECEC" stroke-width="0.1" stroke-linecap="round" stroke-linejoin="round"/>
<path d="M20.9 14.1L20.8 13.8L20.7 13.6V13.5L20.3 13.3H20.2V13.2V13.1V13L21 12V11.9V11.8L20.9 11.7L20.5 11.6V11.5V11.3L20.4 11.2L19.9 10.8L20 10.2V10.1V10L20.1 9.90002L20.3 9.80005H21.8L22 10.4L22.4 10.8L22.6 10.9L23.2 10.8H23.3L23.8 11.3V11.7V11.9V12L23.2 12.3L23 12.7L22.8 12.8L22.6 12.9H21.8L21.6 13.1L21.2 13.2V13.3L21.1 13.4V13.8L20.9 14.1Z" fill="white" stroke="#ECECEC" stroke-width="0.1" stroke-linecap="round" stroke-linejoin="round"/>
<path d="M27.8 12.1L28.6 11.8L29 11.9L29.1 11.8L29.2 11.7V11.6L29.3 11.5L29.5 11.4H29.9H30.1H30.2V11.3L30.3 11.2V10.9L30.6 9.80005L30.7 8.40002H30.8V8.20001H30.9L31.4 7.80005L31.3 8.60004L31.2 8.80005V8.90002V9.10004V9.20001L31.5 9.60004L31.6 10.1L31.8 10.5L31.9 10.6L32 10.7H32.1L32.8 10.3H32.9H33V10.4V10.5V10.7L33.1 10.8L33.3 11.1V11.2H33.4L33.3 11.5V11.6L32.3 13.4L32.2 13.6V13.7L32.1 14.1V15.3L31.3 14.9L30.3 15L29.9 15.1L28.8 15.5L28.9 14.3L29 14.1V14L28.9 13.9L28.8 13.7V13.6L28.2 13.3L28.1 13.2L27.8 12.8V12.6V12.1Z" fill="white" stroke="#ECECEC" stroke-width="0.1" stroke-linecap="round" stroke-linejoin="round"/>
<path d="M32.1 22.9L32.2 23.7L31.6 26.2L30.4 27.2L29.9 28.5L28.8 29.5L28.7 31.2L27.5 31.6L26.8 31.1L26.6 30.7L25.3 31.1L25.1 28.9L24.9 28.8L23.4 25.1L22.6 24L21.6 23.3L20.8 21.9L20.7 21.7V21.6H20.8V21.5V21.4L20.9 21.3H21L21.1 21.2H21.2L23.4 21.4L24.3 22H24.5L24.6 21.9L24.7 21.8L25 21.3L25.3 21.2L26 21.4H26.1L26.3 21.3V21.2L26.4 21.1V21L26.3 20.9L25.5 20L26 19.9H26.3L27 20.6L27.2 21L27.3 21.1H27.4H27.5L27.8 20.9L28.1 20.4L28.7 21.2L29.4 21.8L30.7 21.9L32.1 22.9Z" fill="white" stroke="#ECECEC" stroke-width="0.1" stroke-linecap="round" stroke-linejoin="round"/>
</svg>
